# xmcd
#
# Track frame offsets:
#	150
#	16884
#	35968
#	50398
#	68019
#	84104
#	101038
#	118339
#	135722
#	151938
#	168974
#	186406
#	205180
#	227898
#	246850
#
# Disc length: 3526 seconds
#
# Revision: 2
# Processed by: cddbd v1.5.2PL0 Copyright (c) Steve Scherf et al.
# Submitted via: audiograbber 1.83.01
#
DISCID=cb0dc40f
DTITLE=Various Artist - Best of 2000 Series Country Male Vol. 1
DYEAR=1900
DGENRE=Karaoke
TTITLE0=Toby Keith - How Do You Like Me Now?
TTITLE1=Montgomery Gentry - Daddy Won't Sell The Farm
TTITLE2=Tracy Lawrence - Lessons Learned
TTITLE3=Delbert McClinton - Go On
TTITLE4=Brad Paisley - Me Neither
TTITLE5=Lonestar - Smile
TTITLE6=Toby Keith - Country Comes To Town
TTITLE7=kenny rogers - Buy Me A Rose
TTITLE8=Keith Urban - She's More
TTITLE9=Lonestar - What About Now
TTITLE10=Collin Raye - Couldn't Last A Moment
TTITLE11=Phil Vassar - Carlene
TTITLE12=Tim McGraw - My Best Friend
TTITLE13=Trace Adkins - Don't Lie
TTITLE14=Rascal Flatts - Prayin' For Daylight
EXTD=
EXTT0=
EXTT1=
EXTT2=
EXTT3=
EXTT4=
EXTT5=
EXTT6=
EXTT7=
EXTT8=
EXTT9=
EXTT10=
EXTT11=
EXTT12=
EXTT13=
EXTT14=
PLAYORDER=
